<svg xmlns="http://www.w3.org/2000/svg" width="194.13" height="35" viewBox="0 0 194.13 35"><rect class="svg__rect" x="0" y="0" width="108.01" height="35" fill="#E46C17"/><rect class="svg__rect" x="106.01" y="0" width="88.11999999999999" height="35" fill="#C13B3A"/><path class="svg__text" d="M17.33 22L14.22 22L14.22 13.47L17.14 13.47Q18.59 13.47 19.34 14.05Q20.10 14.63 20.10 15.78L20.10 15.78Q20.10 16.36 19.78 16.83Q19.47 17.30 18.86 17.56L18.86 17.56Q19.55 17.75 19.93 18.26Q20.31 18.78 20.31 19.51L20.31 19.51Q20.31 20.71 19.53 21.36Q18.76 22 17.33 22L17.33 22ZM15.70 18.15L15.70 20.82L17.35 20.82Q18.04 20.82 18.44 20.47Q18.83 20.13 18.83 19.51L18.83 19.51Q18.83 18.18 17.47 18.15L17.47 18.15L15.70 18.15ZM15.70 14.66L15.70 17.06L17.15 17.06Q17.84 17.06 18.23 16.75Q18.62 16.43 18.62 15.86L18.62 15.86Q18.62 15.23 18.26 14.95Q17.90 14.66 17.14 14.66L17.14 14.66L15.70 14.66ZM24.64 19.16L24.64 19.16L24.64 13.47L26.12 13.47L26.12 19.18Q26.12 20.03 26.55 20.48Q26.98 20.93 27.83 20.93L27.83 20.93Q29.54 20.93 29.54 19.13L29.54 19.13L29.54 13.47L31.02 13.47L31.02 19.17Q31.02 20.53 30.15 21.32Q29.28 22.12 27.83 22.12L27.83 22.12Q26.36 22.12 25.50 21.33Q24.64 20.55 24.64 19.16ZM37.15 22L35.67 22L35.67 13.47L37.15 13.47L37.15 22ZM47.32 22L41.96 22L41.96 13.47L43.44 13.47L43.44 20.82L47.32 20.82L47.32 22ZM53.12 14.66L50.49 14.66L50.49 13.47L57.25 13.47L57.25 14.66L54.59 14.66L54.59 22L53.12 22L53.12 14.66ZM63.05 18.86L60.18 13.47L61.83 13.47L63.79 17.51L65.76 13.47L67.40 13.47L64.54 18.86L64.54 22L63.05 22L63.05 18.86ZM80.40 22L77.29 22L77.29 13.47L80.21 13.47Q81.66 13.47 82.41 14.05Q83.17 14.63 83.17 15.78L83.17 15.78Q83.17 16.36 82.85 16.83Q82.54 17.30 81.93 17.56L81.93 17.56Q82.62 17.75 83.00 18.26Q83.38 18.78 83.38 19.51L83.38 19.51Q83.38 20.71 82.60 21.36Q81.83 22 80.40 22L80.40 22ZM78.77 18.15L78.77 20.82L80.42 20.82Q81.11 20.82 81.51 20.47Q81.90 20.13 81.90 19.51L81.90 19.51Q81.90 18.18 80.54 18.15L80.54 18.15L78.77 18.15ZM78.77 14.66L78.77 17.06L80.22 17.06Q80.91 17.06 81.30 16.75Q81.69 16.43 81.69 15.86L81.69 15.86Q81.69 15.23 81.33 14.95Q80.97 14.66 80.21 14.66L80.21 14.66L78.77 14.66ZM89.89 18.86L87.02 13.47L88.67 13.47L90.63 17.51L92.59 13.47L94.23 13.47L91.37 18.86L91.37 22L89.89 22L89.89 18.86Z" fill="#FFFFFF"/><path class="svg__text" d="M124.74 22L120.20 22L120.20 13.60L124.50 13.60Q126.10 13.60 126.94 14.19Q127.79 14.79 127.79 15.79L127.79 15.79Q127.79 16.39 127.49 16.87Q127.19 17.34 126.65 17.62L126.65 17.62Q127.38 17.87 127.78 18.41Q128.19 18.94 128.19 19.70L128.19 19.70Q128.19 20.80 127.30 21.40Q126.41 22 124.74 22L124.74 22ZM122.55 18.58L122.55 20.28L124.55 20.28Q125.79 20.28 125.79 19.43L125.79 19.43Q125.79 18.58 124.55 18.58L124.55 18.58L122.55 18.58ZM122.55 15.31L122.55 16.94L124.18 16.94Q125.38 16.94 125.38 16.12L125.38 16.12Q125.38 15.31 124.18 15.31L124.18 15.31L122.55 15.31ZM139.65 22L132.91 22L132.91 13.60L139.50 13.60L139.50 15.44L135.26 15.44L135.26 16.85L138.99 16.85L138.99 18.63L135.26 18.63L135.26 20.17L139.65 20.17L139.65 22ZM150.84 22L144.46 22L144.46 13.60L146.83 13.60L146.83 20.11L150.84 20.11L150.84 22ZM157.64 22L155.26 22L155.26 13.60L157.64 13.60L157.64 22ZM164.61 15.48L162.02 15.48L162.02 13.60L169.55 13.60L169.55 15.48L166.98 15.48L166.98 22L164.61 22L164.61 15.48ZM176.27 22L173.92 22L173.92 13.60L176.27 13.60L176.27 17.09L179.52 13.60L182.14 13.60L178.71 17.32L182.32 22L179.56 22L177.16 18.95L176.27 19.90L176.27 22Z" fill="#FFFFFF" x="119.01"/></svg>