<svg xmlns="http://www.w3.org/2000/svg" width="163.38" height="35" viewBox="0 0 163.38 35"><rect class="svg__rect" x="0" y="0" width="76.24000000000001" height="35" fill="#C13B3A"/><rect class="svg__rect" x="74.24000000000001" y="0" width="89.13999999999999" height="35" fill="#000000"/><path class="svg__text" d="M15.70 22L14.22 22L14.22 13.47L15.70 13.47L19.51 19.54L19.51 13.47L20.98 13.47L20.98 22L19.50 22L15.70 15.95L15.70 22ZM31.30 22L25.73 22L25.73 13.47L31.26 13.47L31.26 14.66L27.21 14.66L27.21 17.02L30.71 17.02L30.71 18.19L27.21 18.19L27.21 20.82L31.30 20.82L31.30 22ZM37.80 22L34.74 13.47L36.36 13.47L38.50 20.14L40.67 13.47L42.30 13.47L39.23 22L37.80 22ZM51.83 22L46.25 22L46.25 13.47L51.79 13.47L51.79 14.66L47.73 14.66L47.73 17.02L51.24 17.02L51.24 18.19L47.73 18.19L47.73 20.82L51.83 20.82L51.83 22ZM57.51 22L56.02 22L56.02 13.47L59.02 13.47Q60.50 13.47 61.30 14.13Q62.11 14.79 62.11 16.05L62.11 16.05Q62.11 16.90 61.69 17.48Q61.28 18.06 60.54 18.37L60.54 18.37L62.46 21.92L62.46 22L60.87 22L59.16 18.71L57.51 18.71L57.51 22ZM57.51 14.66L57.51 17.52L59.03 17.52Q59.78 17.52 60.20 17.15Q60.62 16.77 60.62 16.11L60.62 16.11Q60.62 15.43 60.23 15.05Q59.84 14.68 59.07 14.66L59.07 14.66L57.51 14.66Z" fill="#000000"/><path class="svg__text" d="M87.84 21.24L87.84 21.24L88.62 19.49Q89.18 19.86 89.93 20.09Q90.67 20.32 91.39 20.32L91.39 20.32Q92.76 20.32 92.76 19.64L92.76 19.64Q92.76 19.28 92.37 19.11Q91.98 18.93 91.12 18.74L91.12 18.74Q90.17 18.53 89.53 18.30Q88.90 18.06 88.44 17.55Q87.99 17.03 87.99 16.16L87.99 16.16Q87.99 15.39 88.41 14.77Q88.83 14.15 89.66 13.79Q90.50 13.43 91.70 13.43L91.70 13.43Q92.53 13.43 93.34 13.62Q94.14 13.80 94.76 14.17L94.76 14.17L94.02 15.93Q92.82 15.28 91.69 15.28L91.69 15.28Q90.98 15.28 90.66 15.49Q90.34 15.70 90.34 16.04L90.34 16.04Q90.34 16.37 90.72 16.54Q91.11 16.71 91.96 16.89L91.96 16.89Q92.92 17.10 93.55 17.33Q94.18 17.56 94.64 18.07Q95.10 18.58 95.10 19.46L95.10 19.46Q95.10 20.21 94.68 20.83Q94.26 21.44 93.42 21.80Q92.58 22.17 91.38 22.17L91.38 22.17Q90.36 22.17 89.40 21.92Q88.44 21.67 87.84 21.24ZM106.42 22L99.68 22L99.68 13.60L106.27 13.60L106.27 15.44L102.03 15.44L102.03 16.85L105.77 16.85L105.77 18.63L102.03 18.63L102.03 20.17L106.42 20.17L106.42 22ZM113.02 15.48L110.44 15.48L110.44 13.60L117.96 13.60L117.96 15.48L115.39 15.48L115.39 22L113.02 22L113.02 15.48ZM124.12 15.48L121.54 15.48L121.54 13.60L129.06 13.60L129.06 15.48L126.50 15.48L126.50 22L124.12 22L124.12 15.48ZM139.82 22L133.43 22L133.43 13.60L135.81 13.60L135.81 20.11L139.82 20.11L139.82 22ZM150.98 22L144.24 22L144.24 13.60L150.83 13.60L150.83 15.44L146.59 15.44L146.59 16.85L150.33 16.85L150.33 18.63L146.59 18.63L146.59 20.17L150.98 20.17L150.98 22Z" fill="#C13B3A" x="87.24000000000001"/></svg>